<?xml version="1.0" standalone="no"?>
<!DOCTYPE svg PUBLIC "-//W3C//DTD SVG 20010904//EN"
 "http://www.w3.org/TR/2001/REC-SVG-20010904/DTD/svg10.dtd">
<svg version="1.0" xmlns="http://www.w3.org/2000/svg"
 width="3360.000000pt" height="1150.000000pt" viewBox="0 0 3360.000000 1150.000000"
 preserveAspectRatio="xMidYMid meet">

<g transform="translate(0.000000,1150.000000) scale(0.100000,-0.100000)"
fill="#000000" stroke="none">
<path d="M27000 5755 l0 -3065 688 2 687 3 3 1291 2 1291 208 188 c114 104
208 192 210 196 3 8 -15 44 -277 526 l-141 261 -3 1184 -2 1183 -687 3 -688 2
0 -3065z"/>
<path d="M29890 7869 c-564 -523 -1026 -955 -1028 -959 -5 -14 1459 -2854
1544 -2995 44 -72 212 -372 374 -666 l295 -536 74 -7 c41 -3 339 -6 663 -6
l589 0 -24 33 c-37 49 -2466 3715 -2469 3726 -2 5 528 534 1177 1176 649 641
1182 1170 1183 1176 2 5 -258 9 -675 9 l-678 0 -1025 -951z"/>
<path d="M2697 8803 c-4 -3 -7 -162 -7 -352 l0 -346 657 -540 c361 -297 665
-546 675 -553 17 -13 18 19 18 892 l0 906 -668 0 c-368 0 -672 -3 -675 -7z"/>
<path d="M4510 8210 l0 -600 820 0 820 0 0 -1174 0 -1174 664 -546 c366 -300
667 -546 670 -546 3 0 6 774 6 1720 l0 1720 871 0 c537 0 869 4 867 9 -1 6
-235 275 -518 600 l-515 590 -1842 0 -1843 1 0 -600z"/>
<path d="M9642 8763 c20 -26 315 -437 658 -913 342 -476 628 -872 636 -880 12
-12 14 36 14 344 l0 358 548 -5 c599 -4 641 -8 825 -67 227 -73 380 -223 428
-420 19 -78 16 -250 -5 -330 -64 -239 -267 -402 -577 -466 -67 -13 -157 -18
-436 -22 -194 -2 -353 -6 -353 -8 0 -2 184 -260 409 -572 l410 -568 98 -13
c493 -65 752 -290 753 -654 0 -110 -22 -211 -66 -304 l-34 -72 380 -528 c209
-290 385 -530 390 -531 17 -6 159 106 251 197 160 160 274 343 343 553 201
604 37 1277 -403 1657 -197 169 -465 297 -721 346 -126 24 -130 25 -130 33 0
5 31 18 69 30 39 13 125 50 192 83 419 206 674 523 766 949 28 133 26 496 -4
645 -30 145 -70 261 -132 381 -65 126 -126 207 -240 317 -243 235 -607 386
-1096 456 -290 42 -350 43 -1699 48 l-1309 4 35 -48z"/>
<path d="M16904 8788 c3 -13 572 -1389 1264 -3058 l1259 -3035 647 -3 c355 -1
646 1 646 5 -1 5 -598 1381 -1328 3058 l-1328 3050 -583 3 -583 2 6 -22z"/>
<path d="M21050 5745 l0 -3055 680 0 680 0 0 1753 c0 963 3 1836 7 1939 l6
186 1299 -1939 1300 -1939 694 0 c382 0 694 3 694 6 0 3 -300 490 -667 1082
l-666 1077 -1331 1973 -1330 1972 -683 0 -683 0 0 -3055z"/>
<path d="M25080 7494 l0 -1306 666 -1386 c367 -763 675 -1403 685 -1422 18
-34 18 37 19 2693 l0 2727 -685 0 -685 0 0 -1306z"/>
<path d="M15333 5163 c-556 -1341 -1015 -2446 -1018 -2455 -7 -17 30 -18 683
-18 l689 0 66 167 c37 93 151 384 255 648 l189 480 1111 3 1111 2 -325 568
-324 567 -573 5 -573 5 231 592 232 591 -366 641 c-201 352 -368 641 -371 641
-3 0 -460 -1097 -1017 -2437z"/>
<path d="M9600 4942 l0 -2253 1393 4 c1495 4 1476 4 1777 57 188 34 498 120
564 157 12 7 -69 105 -400 483 -229 261 -419 478 -422 481 -4 4 -47 -2 -97
-14 -85 -19 -128 -21 -777 -24 l-688 -4 0 695 0 696 189 2 189 3 -840 960
c-461 528 -850 971 -864 985 l-24 25 0 -2253z"/>
<path d="M2692 4659 l3 -1964 673 -3 672 -2 0 1537 -1 1538 -659 423 c-363
232 -667 425 -675 428 -13 6 -15 -205 -13 -1957z"/>
<path d="M6150 3546 l0 -856 670 0 670 0 0 428 -1 427 -630 405 c-347 223
-648 416 -670 429 l-39 23 0 -856z"/>
</g>
</svg>
